<svg width="39" height="23" viewBox="0 0 39 23" fill="none" xmlns="http://www.w3.org/2000/svg">
<g clip-path="url(#clip0_68_72)">
<path d="M24.36 22.28H19.54L15.76 7.81L11.92 22.28H7.1L0 0H5.54L9.54 15.33L13.34 0H18.45L22.23 15.47L26.26 0H31.52L24.36 22.28ZM35.2 14.9C35.6887 14.8847 36.1754 14.9697 36.63 15.1498C37.0846 15.3298 37.4974 15.6011 37.8432 15.9468C38.1889 16.2926 38.4602 16.7054 38.6402 17.16C38.8203 17.6146 38.9053 18.1013 38.89 18.59C38.89 19.5686 38.5012 20.5072 37.8092 21.1992C37.1172 21.8912 36.1786 22.28 35.2 22.28C34.2214 22.28 33.2828 21.8912 32.5908 21.1992C31.8988 20.5072 31.51 19.5686 31.51 18.59C31.4947 18.1013 31.5797 17.6146 31.7598 17.16C31.9398 16.7054 32.2111 16.2926 32.5568 15.9468C32.9026 15.6011 33.3154 15.3298 33.77 15.1498C34.2246 14.9697 34.7113 14.8847 35.2 14.9Z" fill="white"/>
</g>
<defs>
<clipPath id="clip0_68_72">
<rect width="38.89" height="22.28" fill="white"/>
</clipPath>
</defs>
</svg>
